# xmcd
#
# Track frame offsets: 
#        150
#        32002
#        44798
#        69928
#        91420
#        109665
#        131620
#        153495
#        176497
#        195811
#        221703
#        238026
#        271396
#
# Disc length: 4406 seconds
#
# Revision: 0
# Processed by: cddbd v1.4PL0 Copyright (c) Steve Scherf et al.
# Submitted via: ExactAudioCopy v0.95a3
#
DISCID=b311340d
DTITLE=Junoon - Deewar
DYEAR=2003
DGENRE=Rock
TTITLE0=Taara Jala
TTITLE1=Pappu Yar
TTITLE2=Ghoom Taana
TTITLE3=Dewaar
TTITLE4=Maza Zindagi Ka
TTITLE5=Kwawab 2003
TTITLE6=Garaj Baras
TTITLE7=Baarish
TTITLE8=Humgama
TTITLE9=Sapne
TTITLE10=Jhulle Lal
TTITLE11=Balama
TTITLE12=Video
EXTD=
EXTT0=
EXTT1=
EXTT2=
EXTT3=
EXTT4=
EXTT5=
EXTT6=
EXTT7=
EXTT8=
EXTT9=
EXTT10=
EXTT11=
EXTT12=
PLAYORDER=
